<?xml version="1.0" encoding="utf-8"?>
<svg id="master-artboard" viewBox="0 0 1096 780" version="1.1" xmlns="http://www.w3.org/2000/svg" x="0px" y="0px" style="enable-background:new 0 0 1096 780;" width="1096px" height="780px">

<path d="M 699.599976 215.300003 A 151.5 151.5 0 0 1 548.099976 366.800003 A 151.5 151.5 0 0 1 396.599976 215.300003 A 151.5 151.5 0 0 1 548.099976 63.800003 A 151.5 151.5 0 0 1 699.599976 215.300003 Z" class="st0" style="fill: rgb(230, 231, 232);" transform="matrix(1, 0, 0, 1, 15.34013665776402, 160.37415596753283)"/><path d="M 692.599976 209.300003 A 151.5 151.5 0 0 1 541.099976 360.800003 A 151.5 151.5 0 0 1 389.599976 209.300003 A 151.5 151.5 0 0 1 541.099976 57.800003 A 151.5 151.5 0 0 1 692.599976 209.300003 Z" class="st4" style="fill: rgb(242, 113, 111);" transform="matrix(1, 0, 0, 1, 15.34013665776402, 160.37415596753283)"/><path class="st2" d="M477,187.4c-14.4-18.5-38.4-32.9-47.5-9.1c-9.1,23.8,19.4,15.3-1.8,65.8c-9.3,22,51.2,16.5,56.7-1.8&#10;&#9;&#9;c5-16.5,100.5-11,115.2,5.5c14.6,16.5,51.2,32.9,65.8,11c14.6-21.9-29.2-34.7-16.5-47.5c12.8-12.8,18.3-34.7-5.5-40.2&#10;&#9;&#9;s-32.9,20.1-54.8,20.1C566.6,191.1,489.8,203.9,477,187.4z" style="opacity: 0.23; fill: rgb(65, 64, 66);" transform="matrix(1, 0, 0, 1, 15.34013665776402, 160.37415596753283)"/><path class="st3" d="M472.5,180.6c-14.4-18.5-38.4-32.9-47.5-9.1c-9.1,23.8,19.4,15.3-1.8,65.8c-9.3,22,51.2,16.5,56.7-1.8&#10;&#9;&#9;c5-16.5,100.5-11,115.2,5.5c14.6,16.5,51.2,32.9,65.8,11c14.6-21.9-29.2-34.7-16.5-47.5c12.8-12.8,18.3-34.7-5.5-40.2&#10;&#9;&#9;c-23.8-5.5-32.9,20.1-54.8,20.1C562,184.3,485.3,197.1,472.5,180.6z" style="fill: rgb(255, 255, 255);" transform="matrix(1, 0, 0, 1, 15.34013665776402, 160.37415596753283)"/>

</svg>